<svg xmlns="http://www.w3.org/2000/svg" xmlns:xlink="http://www.w3.org/1999/xlink" width="500" zoomAndPan="magnify" viewBox="0 0 375 374.999991" height="500" preserveAspectRatio="xMidYMid meet" version="1.0"><defs><clipPath id="4bb0a71d09"><path d="M 13.007812 0 L 361.757812 0 L 361.757812 375 L 13.007812 375 Z M 13.007812 0 " clip-rule="nonzero"/></clipPath></defs><g clip-path="url(#4bb0a71d09)"><path fill="#0b0703" d="M 353.996094 366.671875 C 353.460938 366.863281 352.578125 367.058594 351.449219 367.1875 C 350.316406 367.316406 348.929688 367.386719 347.332031 367.386719 C 342.144531 367.390625 334.824219 366.648438 326.144531 365.320312 C 310.929688 362.996094 291.464844 358.898438 270.890625 354.066406 C 240.015625 346.8125 206.609375 337.898438 180.933594 330.800781 C 168.09375 327.253906 157.1875 324.15625 149.492188 321.949219 C 145.644531 320.847656 142.601562 319.964844 140.519531 319.359375 C 140.421875 319.328125 140.335938 319.304688 140.246094 319.28125 L 145.132812 252.445312 C 145.472656 252.515625 145.8125 252.574219 146.144531 252.617188 C 147.003906 252.722656 147.832031 252.746094 148.648438 252.746094 C 150.089844 252.746094 151.507812 252.667969 152.902344 252.667969 C 154.292969 252.667969 155.710938 252.742188 157.152344 252.746094 C 158.121094 252.742188 159.101562 252.710938 160.140625 252.546875 C 160.917969 252.417969 161.734375 252.214844 162.570312 251.832031 C 163.195312 251.546875 163.828125 251.148438 164.394531 250.632812 C 165.253906 249.855469 165.917969 248.8125 166.292969 247.722656 C 166.675781 246.628906 166.816406 245.5 166.816406 244.328125 L 166.816406 239.226562 L 243.277344 232.554688 C 249.21875 238.542969 275.582031 265.292969 301.171875 293.960938 C 314.832031 309.253906 328.273438 325.105469 338.21875 338.554688 C 343.191406 345.273438 347.289062 351.398438 350.078125 356.464844 C 351.476562 358.996094 352.539062 361.257812 353.222656 363.140625 C 353.742188 364.546875 354.03125 365.742188 354.140625 366.617188 C 354.089844 366.636719 354.058594 366.652344 353.996094 366.671875 Z M 133.472656 136.007812 C 132.628906 135.164062 132.101562 134.144531 131.832031 133.074219 C 134.878906 131.757812 137.734375 129.863281 140.21875 127.375 C 140.621094 126.976562 141 126.558594 141.375 126.136719 C 141.757812 126.382812 142.128906 126.667969 142.46875 127.007812 L 157.398438 141.949219 C 158.59375 143.140625 159.261719 144.761719 159.261719 146.449219 L 159.261719 244.328125 C 159.261719 244.652344 159.238281 244.882812 159.210938 245.027344 C 159.109375 245.054688 158.96875 245.082031 158.789062 245.105469 C 158.394531 245.15625 157.828125 245.1875 157.152344 245.1875 C 156.003906 245.1875 154.542969 245.113281 152.902344 245.109375 C 151.257812 245.113281 149.796875 245.1875 148.648438 245.1875 C 147.882812 245.1875 147.257812 245.148438 146.867188 245.085938 C 146.746094 245.066406 146.664062 245.046875 146.589844 245.027344 C 146.5625 244.882812 146.539062 244.660156 146.539062 244.328125 L 146.539062 150.648438 C 146.539062 149.65625 146.136719 148.683594 145.433594 147.976562 Z M 121.128906 127.730469 C 116.136719 127.722656 111.183594 125.835938 107.378906 122.03125 L 26.253906 40.855469 C 22.449219 37.042969 20.566406 32.082031 20.558594 27.082031 C 20.566406 22.09375 22.453125 17.144531 26.253906 13.335938 C 30.0625 9.527344 35.015625 7.640625 40.003906 7.636719 C 44.992188 7.640625 49.945312 9.527344 53.75 13.335938 L 134.875 94.515625 C 138.683594 98.328125 140.566406 103.289062 140.570312 108.296875 C 140.566406 113.273438 138.675781 118.222656 134.875 122.03125 C 131.070312 125.835938 126.117188 127.722656 121.128906 127.730469 Z M 351.460938 344.25 C 344.46875 333.671875 334.5 321.0625 323.449219 308.019531 C 306.875 288.460938 287.875 267.96875 273 252.34375 C 258.128906 236.722656 247.394531 225.976562 247.378906 225.960938 C 246.585938 225.171875 245.496094 224.773438 244.382812 224.871094 L 166.816406 231.640625 L 166.816406 146.449219 C 166.816406 142.753906 165.347656 139.214844 162.742188 136.601562 L 147.8125 121.664062 C 147.109375 120.957031 146.34375 120.347656 145.535156 119.824219 C 147.257812 116.183594 148.128906 112.234375 148.125 108.296875 C 148.128906 101.390625 145.492188 94.441406 140.214844 89.167969 L 59.09375 7.992188 C 53.832031 2.722656 46.902344 0.0742188 40.003906 0.078125 C 33.109375 0.0742188 26.175781 2.722656 20.914062 7.992188 C 15.652344 13.25 13 20.179688 13.007812 27.082031 C 13 33.984375 15.644531 40.929688 20.914062 46.199219 L 102.035156 127.375 C 107.296875 132.644531 114.230469 135.292969 121.128906 135.289062 C 122.265625 135.289062 123.402344 135.210938 124.53125 135.066406 C 125.140625 137.371094 126.332031 139.558594 128.132812 141.355469 L 138.984375 152.214844 L 138.984375 236.027344 C 138.8125 236.417969 138.699219 236.839844 138.667969 237.289062 L 132.488281 321.777344 C 132.359375 323.550781 133.484375 325.175781 135.1875 325.675781 C 135.210938 325.683594 176.957031 337.96875 224.269531 350.265625 C 247.929688 356.414062 272.972656 362.566406 294.929688 367.1875 C 305.90625 369.5 316.109375 371.433594 325.003906 372.792969 C 333.90625 374.148438 341.46875 374.9375 347.332031 374.945312 C 349.125 374.945312 350.765625 374.871094 352.265625 374.703125 C 353.386719 374.574219 354.4375 374.394531 355.421875 374.132812 C 356.164062 373.9375 356.871094 373.695312 357.558594 373.378906 C 358.582031 372.902344 359.597656 372.238281 360.421875 371.195312 C 360.828125 370.679688 361.179688 370.070312 361.40625 369.410156 C 361.636719 368.75 361.742188 368.050781 361.742188 367.382812 C 361.734375 365.097656 361.152344 362.804688 360.234375 360.316406 C 358.496094 355.671875 355.460938 350.308594 351.460938 344.25 " fill-opacity="1" fill-rule="nonzero"/></g><path fill="#0b0703" d="M 332.574219 347.613281 L 191.851562 262.519531 C 190.066406 261.4375 187.746094 262.011719 186.667969 263.800781 C 185.589844 265.585938 186.160156 267.910156 187.945312 268.988281 L 328.667969 354.082031 C 330.453125 355.160156 332.773438 354.585938 333.851562 352.800781 C 334.929688 351.015625 334.359375 348.691406 332.574219 347.613281 " fill-opacity="1" fill-rule="nonzero"/></svg>