<svg xmlns="http://www.w3.org/2000/svg" xmlns:xlink="http://www.w3.org/1999/xlink" width="500" zoomAndPan="magnify" viewBox="0 0 375 374.999991" height="500" preserveAspectRatio="xMidYMid meet" version="1.0"><defs><clipPath id="d8832d9a30"><path d="M 0 65 L 375 65 L 375 310.433594 L 0 310.433594 Z M 0 65 " clip-rule="nonzero"/></clipPath></defs><g clip-path="url(#d8832d9a30)"><path fill="#000000" d="M 353.515625 65.066406 L 21.164062 65.066406 C 20.46875 65.066406 19.773438 65.101562 19.078125 65.171875 C 18.382812 65.242188 17.695312 65.34375 17.011719 65.480469 C 16.328125 65.617188 15.652344 65.785156 14.984375 65.988281 C 14.316406 66.191406 13.660156 66.425781 13.019531 66.695312 C 12.375 66.960938 11.742188 67.257812 11.128906 67.585938 C 10.515625 67.917969 9.917969 68.273438 9.335938 68.664062 C 8.757812 69.050781 8.199219 69.464844 7.660156 69.90625 C 7.121094 70.347656 6.601562 70.816406 6.109375 71.308594 C 5.617188 71.800781 5.148438 72.320312 4.707031 72.855469 C 4.265625 73.394531 3.847656 73.957031 3.460938 74.535156 C 3.074219 75.113281 2.714844 75.710938 2.386719 76.324219 C 2.058594 76.941406 1.757812 77.570312 1.492188 78.214844 C 1.222656 78.859375 0.988281 79.511719 0.785156 80.179688 C 0.582031 80.847656 0.414062 81.523438 0.277344 82.207031 C 0.140625 82.890625 0.0390625 83.578125 -0.03125 84.273438 C -0.101562 84.964844 -0.136719 85.660156 -0.136719 86.359375 L -0.136719 288.820312 C -0.136719 289.519531 -0.101562 290.214844 -0.03125 290.90625 C 0.0390625 291.601562 0.140625 292.289062 0.277344 292.972656 C 0.414062 293.65625 0.582031 294.332031 0.785156 295 C 0.988281 295.664062 1.222656 296.320312 1.492188 296.964844 C 1.757812 297.609375 2.058594 298.238281 2.386719 298.851562 C 2.714844 299.46875 3.074219 300.066406 3.460938 300.644531 C 3.847656 301.222656 4.265625 301.78125 4.707031 302.320312 C 5.148438 302.859375 5.617188 303.375 6.109375 303.867188 C 6.601562 304.363281 7.121094 304.828125 7.660156 305.273438 C 8.199219 305.714844 8.757812 306.128906 9.335938 306.515625 C 9.917969 306.902344 10.515625 307.261719 11.128906 307.589844 C 11.742188 307.917969 12.375 308.21875 13.019531 308.484375 C 13.660156 308.753906 14.316406 308.988281 14.984375 309.191406 C 15.652344 309.390625 16.328125 309.5625 17.011719 309.699219 C 17.695312 309.835938 18.382812 309.9375 19.078125 310.007812 C 19.773438 310.074219 20.46875 310.109375 21.164062 310.113281 L 353.515625 310.113281 C 354.214844 310.109375 354.910156 310.074219 355.601562 310.007812 C 356.296875 309.9375 356.984375 309.835938 357.671875 309.699219 C 358.355469 309.5625 359.03125 309.394531 359.699219 309.191406 C 360.363281 308.988281 361.019531 308.753906 361.664062 308.484375 C 362.308594 308.21875 362.9375 307.921875 363.554688 307.59375 C 364.167969 307.261719 364.765625 306.90625 365.347656 306.519531 C 365.925781 306.128906 366.484375 305.714844 367.023438 305.273438 C 367.5625 304.832031 368.082031 304.363281 368.574219 303.871094 C 369.066406 303.378906 369.535156 302.863281 369.976562 302.324219 C 370.421875 301.785156 370.835938 301.226562 371.222656 300.644531 C 371.609375 300.066406 371.96875 299.46875 372.296875 298.855469 C 372.628906 298.238281 372.925781 297.609375 373.191406 296.964844 C 373.460938 296.320312 373.695312 295.667969 373.898438 295 C 374.101562 294.332031 374.269531 293.65625 374.40625 292.972656 C 374.542969 292.289062 374.648438 291.601562 374.714844 290.90625 C 374.785156 290.214844 374.820312 289.519531 374.820312 288.820312 L 374.820312 86.359375 C 374.820312 85.660156 374.785156 84.964844 374.714844 84.269531 C 374.648438 83.578125 374.542969 82.890625 374.40625 82.207031 C 374.269531 81.523438 374.101562 80.847656 373.898438 80.179688 C 373.695312 79.511719 373.460938 78.855469 373.191406 78.214844 C 372.925781 77.570312 372.628906 76.941406 372.296875 76.324219 C 371.96875 75.710938 371.609375 75.113281 371.222656 74.535156 C 370.835938 73.953125 370.421875 73.394531 369.976562 72.855469 C 369.535156 72.316406 369.066406 71.800781 368.574219 71.308594 C 368.082031 70.816406 367.5625 70.347656 367.023438 69.90625 C 366.484375 69.464844 365.925781 69.046875 365.347656 68.660156 C 364.765625 68.273438 364.167969 67.914062 363.554688 67.585938 C 362.9375 67.257812 362.308594 66.960938 361.664062 66.691406 C 361.019531 66.425781 360.363281 66.191406 359.699219 65.988281 C 359.03125 65.785156 358.355469 65.617188 357.671875 65.480469 C 356.984375 65.34375 356.296875 65.242188 355.601562 65.171875 C 354.910156 65.101562 354.214844 65.066406 353.515625 65.066406 Z M 246.269531 187.589844 L 363.28125 83.339844 C 363.601562 84.320312 363.769531 85.328125 363.785156 86.359375 L 363.785156 288.820312 C 363.769531 289.851562 363.601562 290.859375 363.28125 291.835938 Z M 353.503906 76.101562 C 353.894531 76.117188 354.28125 76.15625 354.667969 76.21875 L 194.136719 219.234375 C 193.671875 219.648438 193.171875 220.019531 192.636719 220.34375 C 192.105469 220.667969 191.546875 220.941406 190.964844 221.164062 C 190.382812 221.386719 189.785156 221.554688 189.171875 221.667969 C 188.554688 221.777344 187.9375 221.835938 187.3125 221.835938 C 186.691406 221.835938 186.070312 221.777344 185.457031 221.667969 C 184.84375 221.554688 184.246094 221.386719 183.664062 221.164062 C 183.082031 220.941406 182.523438 220.667969 181.988281 220.34375 C 181.457031 220.019531 180.957031 219.648438 180.492188 219.234375 L 20.003906 76.21875 C 20.386719 76.15625 20.777344 76.117188 21.164062 76.101562 Z M 11.40625 291.835938 C 11.085938 290.859375 10.917969 289.851562 10.902344 288.820312 L 10.902344 86.359375 C 10.917969 85.328125 11.085938 84.320312 11.40625 83.339844 L 128.414062 187.589844 Z M 21.164062 299.089844 C 20.777344 299.070312 20.386719 299.03125 20.003906 298.972656 L 136.695312 194.988281 L 173.179688 227.472656 C 174.144531 228.332031 175.179688 229.101562 176.289062 229.773438 C 177.394531 230.445312 178.554688 231.011719 179.761719 231.472656 C 180.972656 231.933594 182.214844 232.28125 183.488281 232.515625 C 184.761719 232.75 186.046875 232.867188 187.34375 232.867188 C 188.636719 232.867188 189.921875 232.75 191.195312 232.515625 C 192.46875 232.28125 193.710938 231.933594 194.921875 231.472656 C 196.132812 231.011719 197.289062 230.445312 198.398438 229.773438 C 199.503906 229.101562 200.539062 228.332031 201.507812 227.472656 L 237.976562 194.976562 L 354.671875 298.960938 C 354.285156 299.023438 353.898438 299.0625 353.507812 299.078125 Z M 21.164062 299.089844 " fill-opacity="1" fill-rule="nonzero"/></g></svg>