<svg xmlns="http://www.w3.org/2000/svg" xmlns:xlink="http://www.w3.org/1999/xlink" width="500" zoomAndPan="magnify" viewBox="0 0 375 374.999991" height="500" preserveAspectRatio="xMidYMid meet" version="1.0"><defs><clipPath id="4293cbe705"><path d="M 267 244.542969 L 287.855469 244.542969 L 287.855469 264.65625 L 267 264.65625 Z M 267 244.542969 " clip-rule="nonzero"/></clipPath><clipPath id="fd5d0854aa"><path d="M 355.046875 110.15625 L 374.894531 110.15625 L 374.894531 141.945312 L 355.046875 141.945312 Z M 355.046875 110.15625 " clip-rule="nonzero"/></clipPath></defs><path fill="#0b0703" d="M 103.5625 257.574219 C 100.878906 257.574219 98.703125 255.398438 98.703125 252.71875 C 98.703125 250.035156 100.878906 247.863281 103.5625 247.863281 C 106.242188 247.863281 108.414062 250.035156 108.414062 252.71875 C 108.414062 255.398438 106.242188 257.574219 103.5625 257.574219 Z M 103.5625 242.746094 C 98.050781 242.746094 93.585938 247.207031 93.585938 252.71875 C 93.585938 258.222656 98.050781 262.691406 103.5625 262.691406 C 109.066406 262.691406 113.53125 258.222656 113.53125 252.71875 C 113.53125 247.207031 109.066406 242.746094 103.5625 242.746094 " fill-opacity="1" fill-rule="nonzero"/><g clip-path="url(#4293cbe705)"><path fill="#0b0703" d="M 277.5625 259.738281 C 274.878906 259.738281 272.707031 257.566406 272.707031 254.886719 C 272.707031 252.203125 274.878906 250.03125 277.5625 250.03125 C 280.242188 250.03125 282.417969 252.203125 282.417969 254.886719 C 282.417969 257.566406 280.242188 259.738281 277.5625 259.738281 Z M 277.5625 244.914062 C 272.054688 244.914062 267.589844 249.378906 267.589844 254.886719 C 267.589844 260.394531 272.054688 264.859375 277.5625 264.859375 C 283.070312 264.859375 287.535156 260.394531 287.535156 254.886719 C 287.535156 249.378906 283.070312 244.914062 277.5625 244.914062 " fill-opacity="1" fill-rule="nonzero"/></g><path fill="#0b0703" d="M 199.171875 129.921875 C 196.488281 129.921875 194.3125 127.75 194.3125 125.070312 C 194.3125 122.386719 196.488281 120.210938 199.171875 120.210938 C 201.851562 120.210938 204.027344 122.386719 204.027344 125.070312 C 204.027344 127.75 201.851562 129.921875 199.171875 129.921875 Z M 199.171875 115.09375 C 193.664062 115.09375 189.199219 119.558594 189.199219 125.070312 C 189.199219 130.574219 193.664062 135.039062 199.171875 135.039062 C 204.675781 135.039062 209.140625 130.574219 209.140625 125.070312 C 209.140625 119.558594 204.675781 115.09375 199.171875 115.09375 " fill-opacity="1" fill-rule="nonzero"/><g clip-path="url(#fd5d0854aa)"><path fill="#0b0703" d="M 373.867188 123.414062 L 361.992188 111.246094 C 360.597656 109.816406 358.3125 109.792969 356.882812 111.183594 C 355.453125 112.578125 355.425781 114.863281 356.820312 116.292969 L 366.171875 125.875 L 356.589844 135.226562 C 355.160156 136.621094 355.132812 138.90625 356.527344 140.335938 C 357.234375 141.058594 358.171875 141.425781 359.113281 141.425781 C 360.023438 141.425781 360.933594 141.082031 361.636719 140.398438 L 373.804688 128.523438 C 375.234375 127.128906 375.257812 124.839844 373.867188 123.414062 " fill-opacity="1" fill-rule="nonzero"/></g><path fill="#0b0703" d="M 58.777344 147.941406 C 58.957031 149 59.875 149.746094 60.910156 149.746094 C 61.03125 149.746094 61.15625 149.734375 61.28125 149.714844 C 62.457031 149.511719 63.253906 148.390625 63.050781 147.210938 C 62.382812 143.324219 61.253906 139.980469 59.585938 136.988281 C 59.003906 135.941406 57.683594 135.566406 56.636719 136.148438 C 55.589844 136.730469 55.214844 138.050781 55.796875 139.097656 C 57.222656 141.652344 58.195312 144.546875 58.777344 147.941406 " fill-opacity="1" fill-rule="nonzero"/><path fill="#0b0703" d="M 32.347656 121.832031 C 31.957031 121.808594 31.566406 121.792969 31.175781 121.78125 C 28.15625 121.6875 25.148438 121.863281 21.84375 122.304688 C 20.65625 122.46875 19.824219 123.558594 19.984375 124.746094 C 20.132812 125.832031 21.0625 126.625 22.128906 126.625 C 22.226562 126.625 22.320312 126.617188 22.421875 126.605469 C 25.484375 126.191406 28.261719 126.027344 31.042969 126.113281 C 31.394531 126.125 31.746094 126.140625 32.09375 126.160156 C 33.300781 126.230469 34.316406 125.316406 34.382812 124.121094 C 34.453125 122.925781 33.542969 121.902344 32.347656 121.832031 " fill-opacity="1" fill-rule="nonzero"/><path fill="#0b0703" d="M 83.546875 251.046875 C 80.578125 251.539062 77.597656 251.222656 74.757812 250.109375 C 73.640625 249.671875 72.386719 250.222656 71.949219 251.335938 C 71.511719 252.453125 72.0625 253.707031 73.175781 254.144531 C 75.65625 255.117188 78.226562 255.609375 80.820312 255.609375 C 81.960938 255.609375 83.113281 255.511719 84.253906 255.324219 C 85.4375 255.125 86.234375 254.011719 86.039062 252.832031 C 85.84375 251.648438 84.726562 250.847656 83.546875 251.046875 " fill-opacity="1" fill-rule="nonzero"/><path fill="#0b0703" d="M 63.414062 239.859375 C 62.925781 239.027344 62.480469 238.144531 62.089844 237.230469 C 61.617188 236.132812 60.339844 235.625 59.242188 236.09375 C 58.140625 236.570312 57.632812 237.839844 58.105469 238.941406 C 58.570312 240.015625 59.097656 241.0625 59.675781 242.050781 C 60.941406 244.21875 62.441406 246.203125 64.125 247.957031 C 64.550781 248.398438 65.121094 248.621094 65.6875 248.621094 C 66.230469 248.621094 66.769531 248.417969 67.191406 248.015625 C 68.054688 247.1875 68.082031 245.8125 67.253906 244.949219 C 65.800781 243.445312 64.507812 241.730469 63.414062 239.859375 " fill-opacity="1" fill-rule="nonzero"/><path fill="#0b0703" d="M 59.835938 228.078125 C 59.644531 226.277344 59.550781 224.355469 59.550781 222.203125 C 59.550781 221 59.578125 219.71875 59.640625 218.292969 C 59.691406 217.097656 58.761719 216.085938 57.566406 216.035156 C 56.367188 215.976562 55.359375 216.914062 55.308594 218.109375 C 55.242188 219.59375 55.214844 220.9375 55.214844 222.203125 C 55.214844 224.507812 55.316406 226.578125 55.523438 228.535156 C 55.640625 229.648438 56.582031 230.472656 57.675781 230.472656 C 57.753906 230.472656 57.828125 230.46875 57.90625 230.460938 C 59.097656 230.335938 59.960938 229.265625 59.835938 228.078125 " fill-opacity="1" fill-rule="nonzero"/><path fill="#0b0703" d="M 52.390625 128.757812 C 49.628906 126.664062 46.410156 125 42.816406 123.808594 C 41.675781 123.425781 40.457031 124.042969 40.078125 125.183594 C 39.699219 126.316406 40.316406 127.542969 41.453125 127.917969 C 44.59375 128.964844 47.390625 130.40625 49.773438 132.210938 C 50.164062 132.507812 50.625 132.652344 51.082031 132.652344 C 51.734375 132.652344 52.386719 132.355469 52.808594 131.792969 C 53.535156 130.839844 53.34375 129.480469 52.390625 128.757812 " fill-opacity="1" fill-rule="nonzero"/><path fill="#0b0703" d="M 11.691406 124.320312 C 8.296875 125.167969 4.878906 126.160156 1.863281 127.039062 C 0.714844 127.375 0.0507812 128.578125 0.386719 129.726562 C 0.660156 130.675781 1.527344 131.289062 2.46875 131.289062 C 2.667969 131.289062 2.871094 131.261719 3.074219 131.203125 C 6.050781 130.335938 9.425781 129.351562 12.742188 128.527344 C 13.902344 128.234375 14.609375 127.058594 14.316406 125.894531 C 14.027344 124.734375 12.851562 124.023438 11.691406 124.320312 " fill-opacity="1" fill-rule="nonzero"/><path fill="#0b0703" d="M 56.707031 197.863281 L 55.976562 207.953125 C 55.890625 209.148438 56.789062 210.1875 57.980469 210.269531 C 58.03125 210.273438 58.085938 210.277344 58.140625 210.277344 C 59.265625 210.277344 60.214844 209.40625 60.296875 208.265625 L 61.027344 198.175781 C 61.113281 196.984375 60.214844 195.945312 59.023438 195.855469 C 57.824219 195.777344 56.789062 196.671875 56.707031 197.863281 " fill-opacity="1" fill-rule="nonzero"/><path fill="#0b0703" d="M 59.417969 157.625 C 59.382812 160.382812 59.21875 163.125 58.980469 166.398438 L 58.894531 167.597656 C 58.808594 168.792969 59.707031 169.832031 60.898438 169.917969 C 60.953125 169.921875 61.007812 169.921875 61.058594 169.921875 C 62.183594 169.921875 63.136719 169.050781 63.21875 167.910156 L 63.304688 166.710938 C 63.546875 163.363281 63.714844 160.542969 63.753906 157.683594 C 63.765625 156.488281 62.808594 155.503906 61.613281 155.488281 C 60.441406 155.441406 59.433594 156.429688 59.417969 157.625 " fill-opacity="1" fill-rule="nonzero"/><path fill="#0b0703" d="M 61.757812 188.085938 L 62.488281 178 C 62.574219 176.804688 61.675781 175.769531 60.480469 175.679688 C 59.269531 175.59375 58.253906 176.492188 58.164062 177.6875 L 57.433594 187.777344 C 57.347656 188.972656 58.246094 190.007812 59.441406 190.09375 C 59.496094 190.097656 59.546875 190.101562 59.597656 190.101562 C 60.726562 190.101562 61.675781 189.226562 61.757812 188.085938 " fill-opacity="1" fill-rule="nonzero"/><path fill="#0b0703" d="M 147.6875 197.015625 C 146.496094 197.117188 145.613281 198.167969 145.71875 199.359375 C 146.039062 203.066406 146.285156 206.351562 146.472656 209.394531 C 146.542969 210.542969 147.5 211.429688 148.636719 211.429688 C 148.679688 211.429688 148.726562 211.425781 148.769531 211.425781 C 149.964844 211.347656 150.875 210.320312 150.800781 209.128906 C 150.609375 206.046875 150.359375 202.730469 150.035156 198.988281 C 149.933594 197.792969 148.886719 196.90625 147.6875 197.015625 " fill-opacity="1" fill-rule="nonzero"/><path fill="#0b0703" d="M 147.148438 191.261719 C 148.339844 191.144531 149.210938 190.082031 149.09375 188.890625 L 148.839844 186.300781 C 148.597656 183.8125 148.355469 181.324219 148.121094 178.832031 C 148.007812 177.640625 146.949219 176.765625 145.757812 176.875 C 144.570312 176.988281 143.695312 178.042969 143.804688 179.238281 C 144.039062 181.730469 144.285156 184.226562 144.527344 186.722656 L 144.78125 189.3125 C 144.886719 190.433594 145.832031 191.269531 146.933594 191.269531 C 147.003906 191.269531 147.074219 191.265625 147.148438 191.261719 " fill-opacity="1" fill-rule="nonzero"/><path fill="#0b0703" d="M 142.964844 169.136719 C 143.0625 170.269531 144.007812 171.121094 145.121094 171.121094 C 145.179688 171.121094 145.242188 171.121094 145.308594 171.113281 C 146.5 171.011719 147.386719 169.964844 147.285156 168.773438 L 147.183594 167.605469 C 146.933594 164.695312 146.675781 161.6875 146.5625 158.78125 C 146.515625 157.585938 145.503906 156.660156 144.3125 156.699219 C 143.117188 156.746094 142.183594 157.757812 142.230469 158.949219 C 142.351562 161.957031 142.613281 165.015625 142.863281 167.972656 L 142.964844 169.136719 " fill-opacity="1" fill-rule="nonzero"/><path fill="#0b0703" d="M 144.46875 150.917969 C 144.5625 150.933594 144.660156 150.9375 144.753906 150.9375 C 145.824219 150.9375 146.757812 150.144531 146.898438 149.054688 C 147.289062 146.105469 147.96875 143.449219 148.957031 140.976562 C 149.097656 140.640625 149.246094 140.3125 149.398438 139.992188 C 149.910156 138.910156 149.453125 137.617188 148.371094 137.101562 C 147.289062 136.589844 145.996094 137.050781 145.484375 138.128906 C 145.300781 138.511719 145.128906 138.898438 144.945312 139.328125 C 143.808594 142.179688 143.039062 145.175781 142.601562 148.484375 C 142.445312 149.671875 143.277344 150.761719 144.46875 150.917969 " fill-opacity="1" fill-rule="nonzero"/><path fill="#0b0703" d="M 182.203125 121.308594 C 178.636719 120.953125 175.046875 120.96875 171.65625 121.339844 C 170.464844 121.472656 169.609375 122.539062 169.738281 123.730469 C 169.859375 124.839844 170.800781 125.660156 171.886719 125.660156 C 171.96875 125.660156 172.050781 125.65625 172.128906 125.648438 C 175.222656 125.308594 178.507812 125.300781 181.777344 125.621094 C 182.972656 125.734375 184.03125 124.871094 184.148438 123.679688 C 184.265625 122.488281 183.398438 121.425781 182.203125 121.308594 " fill-opacity="1" fill-rule="nonzero"/><path fill="#0b0703" d="M 149.074219 217.195312 C 149.058594 217.195312 149.042969 217.195312 149.023438 217.195312 C 147.828125 217.226562 146.878906 218.21875 146.910156 219.414062 C 146.941406 220.917969 146.960938 222.410156 146.960938 223.855469 C 146.8125 225.605469 146.570312 227.335938 146.246094 229.011719 C 146.015625 230.183594 146.78125 231.324219 147.957031 231.554688 C 148.097656 231.578125 148.238281 231.59375 148.375 231.59375 C 149.390625 231.59375 150.296875 230.875 150.5 229.839844 C 150.863281 227.984375 151.128906 226.0625 151.289062 224.125 C 151.292969 224.066406 151.292969 224.007812 151.292969 223.949219 C 151.292969 222.441406 151.277344 220.882812 151.242188 219.316406 C 151.214844 218.136719 150.25 217.195312 149.074219 217.195312 " fill-opacity="1" fill-rule="nonzero"/><path fill="#0b0703" d="M 130.910156 250.246094 C 129.390625 250.523438 127.679688 250.644531 125.367188 250.644531 C 124.257812 250.644531 123.136719 250.621094 122.003906 250.59375 L 121.257812 250.574219 C 120.09375 250.53125 119.066406 251.496094 119.042969 252.6875 C 119.011719 253.886719 119.957031 254.878906 121.15625 254.90625 L 121.898438 254.925781 C 123.066406 254.953125 124.222656 254.980469 125.367188 254.980469 C 127.953125 254.980469 129.902344 254.835938 131.683594 254.511719 C 132.863281 254.296875 133.644531 253.167969 133.429688 251.992188 C 133.214844 250.816406 132.089844 250.035156 130.910156 250.246094 " fill-opacity="1" fill-rule="nonzero"/><path fill="#0b0703" d="M 161.289062 123.820312 C 157.757812 125.203125 154.636719 127.082031 152.023438 129.402344 C 151.128906 130.195312 151.046875 131.570312 151.839844 132.464844 C 152.269531 132.945312 152.863281 133.191406 153.460938 133.191406 C 153.972656 133.191406 154.484375 133.011719 154.902344 132.648438 C 157.128906 130.664062 159.816406 129.054688 162.871094 127.859375 C 163.984375 127.421875 164.535156 126.167969 164.097656 125.050781 C 163.664062 123.9375 162.410156 123.386719 161.289062 123.820312 " fill-opacity="1" fill-rule="nonzero"/><path fill="#0b0703" d="M 146.238281 237.078125 C 145.148438 236.582031 143.863281 237.066406 143.371094 238.15625 C 142.015625 241.148438 140.308594 243.832031 138.304688 246.132812 C 137.515625 247.035156 137.613281 248.40625 138.511719 249.191406 C 138.925781 249.550781 139.433594 249.726562 139.9375 249.726562 C 140.542969 249.726562 141.140625 249.476562 141.570312 248.984375 C 143.855469 246.363281 145.789062 243.320312 147.316406 239.945312 C 147.8125 238.855469 147.328125 237.574219 146.238281 237.078125 " fill-opacity="1" fill-rule="nonzero"/><path fill="#0b0703" d="M 236.050781 194.566406 L 235.320312 204.65625 C 235.238281 205.851562 236.132812 206.890625 237.328125 206.972656 C 237.382812 206.980469 237.4375 206.980469 237.488281 206.980469 C 238.613281 206.980469 239.5625 206.109375 239.644531 204.96875 L 240.375 194.878906 C 240.460938 193.6875 239.5625 192.648438 238.371094 192.5625 C 237.164062 192.480469 236.140625 193.375 236.050781 194.566406 " fill-opacity="1" fill-rule="nonzero"/><path fill="#0b0703" d="M 238.308594 154.503906 C 238.402344 155.824219 238.449219 157.179688 238.449219 158.660156 C 238.449219 160.351562 238.386719 162.203125 238.257812 164.328125 C 238.1875 165.527344 239.101562 166.550781 240.292969 166.621094 C 240.335938 166.625 240.382812 166.628906 240.425781 166.628906 C 241.566406 166.628906 242.519531 165.738281 242.589844 164.589844 C 242.71875 162.375 242.785156 160.4375 242.785156 158.660156 C 242.785156 157.078125 242.734375 155.617188 242.632812 154.195312 C 242.546875 153.003906 241.519531 152.09375 240.3125 152.1875 C 239.125 152.277344 238.222656 153.3125 238.308594 154.503906 " fill-opacity="1" fill-rule="nonzero"/><path fill="#0b0703" d="M 257.738281 253.246094 C 254.847656 252.84375 252.046875 251.699219 249.421875 249.839844 C 248.441406 249.148438 247.089844 249.378906 246.398438 250.355469 C 245.707031 251.332031 245.9375 252.683594 246.914062 253.375 C 250.117188 255.640625 253.554688 257.042969 257.144531 257.539062 C 257.246094 257.554688 257.34375 257.5625 257.441406 257.5625 C 258.507812 257.5625 259.4375 256.777344 259.585938 255.6875 C 259.753906 254.503906 258.925781 253.410156 257.738281 253.246094 " fill-opacity="1" fill-rule="nonzero"/><path fill="#0b0703" d="M 241.105469 184.792969 L 241.835938 174.703125 C 241.921875 173.507812 241.023438 172.472656 239.828125 172.382812 C 238.625 172.296875 237.597656 173.199219 237.511719 174.390625 L 236.78125 184.476562 C 236.695312 185.671875 237.59375 186.710938 238.789062 186.796875 C 238.839844 186.800781 238.890625 186.804688 238.945312 186.804688 C 240.070312 186.804688 241.023438 185.929688 241.105469 184.792969 " fill-opacity="1" fill-rule="nonzero"/><path fill="#0b0703" d="M 236.3125 227.171875 C 237.507812 227.160156 238.472656 226.183594 238.460938 224.984375 L 238.460938 224.476562 C 238.460938 221.234375 238.6875 217.917969 238.902344 215.0625 C 238.992188 213.867188 238.097656 212.828125 236.90625 212.738281 C 235.714844 212.648438 234.667969 213.542969 234.578125 214.738281 C 234.359375 217.671875 234.125 221.085938 234.125 224.476562 L 234.128906 225.019531 C 234.136719 226.210938 235.105469 227.171875 236.296875 227.171875 C 236.300781 227.171875 236.308594 227.171875 236.3125 227.171875 " fill-opacity="1" fill-rule="nonzero"/><path fill="#0b0703" d="M 226.320312 127.878906 C 223.199219 126.316406 219.773438 125.199219 216.136719 124.5625 C 214.96875 124.351562 213.832031 125.140625 213.625 126.320312 C 213.421875 127.5 214.207031 128.621094 215.386719 128.832031 C 218.609375 129.394531 221.632812 130.378906 224.375 131.753906 C 224.6875 131.910156 225.015625 131.984375 225.34375 131.984375 C 226.140625 131.984375 226.90625 131.546875 227.285156 130.785156 C 227.820312 129.71875 227.386719 128.417969 226.320312 127.878906 " fill-opacity="1" fill-rule="nonzero"/><path fill="#0b0703" d="M 236.488281 145.171875 C 236.804688 146.0625 237.640625 146.621094 238.535156 146.621094 C 238.773438 146.621094 239.015625 146.582031 239.253906 146.5 C 240.382812 146.101562 240.976562 144.867188 240.582031 143.738281 C 240.34375 143.050781 240.078125 142.371094 239.792969 141.710938 C 238.632812 139.015625 237.023438 136.539062 235.015625 134.347656 C 234.207031 133.46875 232.835938 133.410156 231.953125 134.21875 C 231.070312 135.027344 231.011719 136.398438 231.820312 137.28125 C 233.5 139.109375 234.84375 141.175781 235.808594 143.425781 C 236.054688 143.996094 236.285156 144.582031 236.488281 145.171875 " fill-opacity="1" fill-rule="nonzero"/><path fill="#0b0703" d="M 241.984375 241.347656 C 240.863281 239.285156 240.039062 237.0625 239.460938 234.554688 C 239.191406 233.386719 238.03125 232.660156 236.863281 232.929688 C 235.695312 233.203125 234.96875 234.363281 235.238281 235.53125 C 235.898438 238.382812 236.882812 241.035156 238.167969 243.414062 C 238.554688 244.125 238.972656 244.828125 239.417969 245.507812 C 239.832031 246.144531 240.527344 246.492188 241.234375 246.492188 C 241.640625 246.492188 242.050781 246.378906 242.414062 246.140625 C 243.417969 245.488281 243.703125 244.144531 243.050781 243.140625 C 242.671875 242.558594 242.3125 241.960938 241.984375 241.347656 " fill-opacity="1" fill-rule="nonzero"/><path fill="#0b0703" d="M 321.585938 199.183594 C 320.390625 199.285156 319.507812 200.335938 319.609375 201.53125 C 319.929688 205.238281 320.179688 208.519531 320.367188 211.558594 C 320.4375 212.710938 321.390625 213.59375 322.527344 213.59375 C 322.574219 213.59375 322.617188 213.59375 322.664062 213.59375 C 323.859375 213.519531 324.769531 212.488281 324.695312 211.296875 C 324.503906 208.214844 324.253906 204.898438 323.929688 201.15625 C 323.824219 199.964844 322.792969 199.074219 321.585938 199.183594 " fill-opacity="1" fill-rule="nonzero"/><path fill="#0b0703" d="M 316.855469 171.304688 C 316.953125 172.433594 317.902344 173.289062 319.015625 173.289062 C 319.074219 173.289062 319.136719 173.289062 319.203125 173.28125 C 320.394531 173.179688 321.28125 172.128906 321.179688 170.941406 L 321.078125 169.769531 C 320.828125 166.859375 320.570312 163.855469 320.457031 160.949219 C 320.410156 159.753906 319.378906 158.816406 318.207031 158.867188 C 317.007812 158.917969 316.078125 159.925781 316.125 161.117188 C 316.246094 164.125 316.503906 167.183594 316.757812 170.140625 L 316.855469 171.304688 " fill-opacity="1" fill-rule="nonzero"/><path fill="#0b0703" d="M 318.359375 153.089844 C 318.457031 153.101562 318.550781 153.105469 318.644531 153.105469 C 319.71875 153.105469 320.648438 152.3125 320.792969 151.222656 C 321.183594 148.273438 321.859375 145.621094 322.851562 143.148438 C 322.992188 142.808594 323.140625 142.480469 323.292969 142.15625 C 323.804688 141.074219 323.34375 139.78125 322.261719 139.269531 C 321.183594 138.761719 319.886719 139.21875 319.375 140.300781 C 319.195312 140.679688 319.023438 141.066406 318.839844 141.5 C 317.699219 144.347656 316.933594 147.34375 316.496094 150.652344 C 316.335938 151.839844 317.171875 152.929688 318.359375 153.089844 " fill-opacity="1" fill-rule="nonzero"/><path fill="#0b0703" d="M 321.042969 193.425781 C 322.230469 193.3125 323.101562 192.253906 322.988281 191.058594 L 322.734375 188.472656 C 322.492188 185.980469 322.246094 183.488281 322.011719 181 C 321.902344 179.808594 320.851562 178.929688 319.652344 179.046875 C 318.464844 179.15625 317.585938 180.214844 317.699219 181.40625 C 317.933594 183.898438 318.179688 186.398438 318.421875 188.890625 L 318.671875 191.480469 C 318.78125 192.601562 319.722656 193.4375 320.828125 193.4375 C 320.898438 193.4375 320.96875 193.4375 321.042969 193.425781 " fill-opacity="1" fill-rule="nonzero"/><path fill="#0b0703" d="M 304.886719 253.613281 C 302.210938 254.730469 299.152344 255.359375 295.792969 255.480469 C 294.597656 255.523438 293.660156 256.527344 293.707031 257.722656 C 293.75 258.894531 294.707031 259.8125 295.871094 259.8125 C 295.894531 259.8125 295.921875 259.8125 295.949219 259.8125 C 299.832031 259.671875 303.402344 258.933594 306.558594 257.613281 C 307.660156 257.152344 308.183594 255.882812 307.722656 254.777344 C 307.261719 253.671875 305.992188 253.15625 304.886719 253.613281 " fill-opacity="1" fill-rule="nonzero"/><path fill="#0b0703" d="M 320.132812 239.246094 C 319.042969 238.75 317.757812 239.234375 317.261719 240.328125 C 315.910156 243.316406 314.203125 246 312.199219 248.304688 C 311.410156 249.203125 311.503906 250.574219 312.40625 251.359375 C 312.820312 251.71875 313.328125 251.894531 313.828125 251.894531 C 314.433594 251.894531 315.035156 251.640625 315.464844 251.152344 C 317.75 248.53125 319.683594 245.492188 321.210938 242.113281 C 321.707031 241.023438 321.222656 239.742188 320.132812 239.246094 " fill-opacity="1" fill-rule="nonzero"/><path fill="#0b0703" d="M 335.183594 125.988281 C 331.648438 127.371094 328.53125 129.25 325.914062 131.570312 C 325.019531 132.363281 324.9375 133.734375 325.734375 134.632812 C 326.160156 135.113281 326.753906 135.359375 327.351562 135.359375 C 327.867188 135.359375 328.378906 135.179688 328.792969 134.8125 C 331.023438 132.832031 333.707031 131.222656 336.761719 130.027344 C 337.878906 129.589844 338.425781 128.335938 337.992188 127.21875 C 337.554688 126.105469 336.300781 125.554688 335.183594 125.988281 " fill-opacity="1" fill-rule="nonzero"/><path fill="#0b0703" d="M 322.96875 219.367188 C 322.953125 219.367188 322.9375 219.367188 322.917969 219.367188 C 321.722656 219.390625 320.773438 220.386719 320.800781 221.582031 C 320.832031 223.085938 320.851562 224.578125 320.851562 226.023438 C 320.703125 227.773438 320.464844 229.507812 320.136719 231.179688 C 319.90625 232.355469 320.675781 233.492188 321.851562 233.722656 C 321.992188 233.75 322.128906 233.761719 322.265625 233.761719 C 323.285156 233.761719 324.1875 233.042969 324.390625 232.007812 C 324.753906 230.152344 325.019531 228.230469 325.179688 226.296875 C 325.1875 226.234375 325.1875 226.175781 325.1875 226.113281 C 325.1875 224.609375 325.171875 223.050781 325.136719 221.484375 C 325.109375 220.304688 324.144531 219.367188 322.96875 219.367188 " fill-opacity="1" fill-rule="nonzero"/><path fill="#0b0703" d="M 358.042969 125.847656 C 358.15625 124.652344 357.289062 123.597656 356.097656 123.476562 C 352.527344 123.125 348.941406 123.136719 345.546875 123.507812 C 344.355469 123.636719 343.5 124.710938 343.628906 125.898438 C 343.753906 127.007812 344.691406 127.828125 345.78125 127.828125 C 345.863281 127.828125 345.941406 127.828125 346.023438 127.816406 C 349.117188 127.476562 352.402344 127.46875 355.671875 127.789062 C 356.859375 127.910156 357.925781 127.039062 358.042969 125.847656 " fill-opacity="1" fill-rule="nonzero"/></svg>