<svg xmlns="http://www.w3.org/2000/svg" xmlns:xlink="http://www.w3.org/1999/xlink" width="500" zoomAndPan="magnify" viewBox="0 0 375 374.999991" height="500" preserveAspectRatio="xMidYMid meet" version="1.0"><defs><clipPath id="59efc437c9"><path d="M 0 35.15625 L 375 35.15625 L 375 337.40625 L 0 337.40625 Z M 0 35.15625 " clip-rule="nonzero"/></clipPath></defs><g clip-path="url(#59efc437c9)"><path fill="#000000" d="M 356.8125 276.957031 L 356.8125 228.597656 C 356.8125 193.832031 346.328125 160.554688 326.578125 132.15625 L 326.578125 107.695312 C 326.578125 97.699219 318.4375 89.5625 308.4375 89.5625 C 302.449219 89.5625 297.171875 92.511719 293.863281 96.996094 C 273.128906 80.226562 248.792969 68.621094 222.777344 63.101562 C 219.003906 47.105469 204.636719 35.15625 187.5 35.15625 C 170.355469 35.15625 155.996094 47.113281 152.214844 63.109375 C 126.207031 68.628906 101.871094 80.226562 81.136719 96.996094 C 77.828125 92.511719 72.550781 89.5625 66.5625 89.5625 C 56.5625 89.5625 48.421875 97.699219 48.421875 107.695312 L 48.421875 132.15625 C 28.671875 160.554688 18.1875 193.832031 18.1875 228.597656 L 18.1875 276.957031 C 8.1875 276.957031 0.046875 285.09375 0.046875 295.089844 L 0.046875 319.269531 C 0.046875 329.269531 8.1875 337.40625 18.1875 337.40625 L 356.8125 337.40625 C 366.8125 337.40625 374.953125 329.269531 374.953125 319.269531 L 374.953125 295.089844 C 374.953125 285.09375 366.8125 276.957031 356.8125 276.957031 Z M 343.570312 210.460938 L 235.457031 210.460938 C 234.222656 200.625 230.027344 191.714844 223.78125 184.625 L 223.78125 75.710938 C 248.300781 81.507812 271.117188 93.164062 290.296875 109.761719 L 290.296875 180.234375 C 290.296875 183.578125 293 186.28125 296.34375 186.28125 L 320.53125 186.28125 C 323.875 186.28125 326.578125 183.578125 326.578125 180.234375 L 326.578125 155.414062 C 335.628906 172.554688 341.355469 191.136719 343.570312 210.460938 Z M 187.5 180.234375 C 207.507812 180.234375 223.78125 196.503906 223.78125 216.507812 C 223.78125 236.507812 207.507812 252.777344 187.5 252.777344 C 167.492188 252.777344 151.21875 236.507812 151.21875 216.507812 C 151.21875 196.503906 167.492188 180.234375 187.5 180.234375 Z M 302.390625 107.695312 C 302.390625 104.359375 305.101562 101.652344 308.4375 101.652344 C 311.773438 101.652344 314.484375 104.359375 314.484375 107.695312 L 314.484375 174.191406 L 302.390625 174.191406 Z M 187.5 47.246094 C 200.839844 47.246094 211.6875 58.089844 211.6875 71.425781 L 211.6875 174.6875 C 204.5625 170.550781 196.316406 168.144531 187.5 168.144531 C 178.683594 168.144531 170.4375 170.550781 163.3125 174.6875 L 163.3125 71.425781 C 163.3125 58.089844 174.160156 47.246094 187.5 47.246094 Z M 60.515625 107.695312 C 60.515625 104.359375 63.226562 101.652344 66.5625 101.652344 C 69.898438 101.652344 72.609375 104.359375 72.609375 107.695312 L 72.609375 174.191406 L 60.515625 174.191406 Z M 54.46875 186.28125 L 78.65625 186.28125 C 82 186.28125 84.703125 183.578125 84.703125 180.234375 L 84.703125 109.761719 C 103.890625 93.164062 126.703125 81.507812 151.21875 75.710938 L 151.21875 184.625 C 144.976562 191.714844 140.78125 200.621094 139.542969 210.460938 L 31.429688 210.460938 C 33.644531 191.136719 39.371094 172.554688 48.421875 155.414062 L 48.421875 180.234375 C 48.421875 183.578125 51.125 186.28125 54.46875 186.28125 Z M 30.28125 228.597656 C 30.28125 226.570312 30.4375 224.5625 30.511719 222.550781 L 139.542969 222.550781 C 142.535156 246.367188 162.878906 264.867188 187.5 264.867188 C 212.121094 264.867188 232.464844 246.367188 235.457031 222.550781 L 344.488281 222.550781 C 344.5625 224.5625 344.71875 226.570312 344.71875 228.597656 L 344.71875 276.957031 L 30.28125 276.957031 Z M 362.859375 319.269531 C 362.859375 322.609375 360.148438 325.316406 356.8125 325.316406 L 18.1875 325.316406 C 14.851562 325.316406 12.140625 322.609375 12.140625 319.269531 L 12.140625 295.089844 C 12.140625 291.753906 14.851562 289.046875 18.1875 289.046875 L 356.8125 289.046875 C 360.148438 289.046875 362.859375 291.753906 362.859375 295.089844 Z M 362.859375 319.269531 " fill-opacity="1" fill-rule="nonzero"/></g></svg>