<svg xmlns="http://www.w3.org/2000/svg" xmlns:xlink="http://www.w3.org/1999/xlink" width="500" zoomAndPan="magnify" viewBox="0 0 375 374.999991" height="500" preserveAspectRatio="xMidYMid meet" version="1.0"><path fill="#282828" d="M 342.96875 338.207031 L 343.046875 338.207031 Z M 65.554688 30.304688 C 62.046875 30.304688 58.726562 31.894531 55.125 35.050781 C 54.726562 35.425781 49.570312 40.316406 46.214844 43.511719 L 43.285156 46.277344 C 26.171875 62.273438 18.414062 91.066406 23.519531 119.644531 C 25.164062 128.875 27.8125 138.441406 31.402344 148.0625 C 49.492188 196.628906 83.824219 238.855469 109.449219 265.734375 C 134.957031 292.789062 175.300781 329.332031 222.828125 349.984375 C 232.257812 354.078125 241.664062 357.242188 250.789062 359.382812 C 279.058594 366.003906 308.238281 359.800781 325.117188 343.578125 L 327.929688 340.902344 C 331.195312 337.820312 336.292969 332.992188 337.035156 332.28125 C 347.546875 321.472656 342.292969 312.484375 321.210938 291.046875 L 315.9375 285.632812 C 302.582031 271.777344 280.171875 248.574219 261.230469 250.835938 C 256.078125 251.445312 250.703125 255.203125 245.011719 259.171875 C 239.363281 263.113281 233.523438 267.183594 226.519531 269.402344 C 207.714844 275.367188 188.648438 271.449219 172.800781 258.394531 C 163.328125 250.589844 153.691406 241.453125 144.933594 232.007812 C 136.078125 222.878906 127.480469 212.773438 120.195312 202.90625 C 108.015625 186.398438 105.128906 167.152344 112.082031 148.695312 C 114.671875 141.816406 119.054688 136.207031 123.296875 130.777344 C 127.566406 125.308594 131.601562 120.144531 132.480469 115.03125 C 135.742188 96.195312 113.78125 72.632812 100.652344 58.546875 L 95.539062 52.996094 C 81.628906 37.78125 73.167969 30.304688 65.554688 30.304688 Z M 273.601562 378.746094 C 264.152344 378.746094 255.066406 377.597656 246.964844 375.699219 C 236.863281 373.34375 226.492188 369.855469 216.140625 365.359375 C 166.003906 343.578125 123.832031 305.433594 97.28125 277.269531 C 70.601562 249.292969 34.765625 205.140625 15.691406 153.914062 C 11.75 143.347656 8.832031 132.808594 7.007812 122.589844 C 2.175781 95.511719 6.152344 58.027344 31.835938 34.039062 L 34.671875 31.34375 C 38.246094 27.953125 43.804688 22.671875 44.03125 22.476562 C 69.722656 -0.0742188 92.710938 25.054688 107.910156 41.6875 L 112.921875 47.121094 C 128.167969 63.476562 153.683594 90.855469 149.007812 117.886719 C 147.402344 127.136719 141.617188 134.558594 136.511719 141.097656 C 132.886719 145.734375 129.457031 150.121094 127.773438 154.605469 C 122.820312 167.742188 124.871094 181.007812 133.691406 192.953125 C 140.53125 202.21875 148.628906 211.734375 157.101562 220.472656 C 165.492188 229.523438 174.566406 238.113281 183.46875 245.460938 C 194.933594 254.910156 208.066406 257.65625 221.457031 253.429688 C 226.023438 251.972656 230.578125 248.792969 235.40625 245.425781 C 242.21875 240.679688 249.925781 235.289062 259.257812 234.1875 C 286.589844 230.964844 312.492188 257.90625 328.007812 274.003906 L 333.171875 279.292969 C 348.96875 295.359375 372.839844 319.648438 348.96875 344.066406 C 348.59375 344.425781 342.988281 349.742188 339.453125 353.082031 L 336.726562 355.667969 C 319.066406 372.644531 295.394531 378.746094 273.601562 378.746094 " fill-opacity="1" fill-rule="nonzero"/></svg>